<?xml version="1.0" encoding="UTF-8"?>
<svg width="233px" height="68px" viewBox="0 0 233 68" version="1.1" xmlns="http://www.w3.org/2000/svg" xmlns:xlink="http://www.w3.org/1999/xlink">
    <!-- Generator: Sketch 52.1 (67048) - http://www.bohemiancoding.com/sketch -->
    <title>Group 10</title>
    <desc>Created with Sketch.</desc>
    <defs>
        <polygon id="path-1" points="0 0 7.62224607 0 7.62224607 7.0880829 0 7.0880829"></polygon>
    </defs>
    <g id="Page-1" stroke="none" stroke-width="1" fill="none" fill-rule="evenodd">
        <g id="02-Click-to-Tweet-Settings-Page" transform="translate(-1032.000000, -655.000000)">
            <g id="Group-10" transform="translate(1032.000000, 655.000000)">
                <g id="Group-7" transform="translate(0.078341, 0.500000)">
                    <g id="Group-64-Copy">
                        <g id="Group-80">
                            <path d="M232.671659,65.2383025 L232.671659,5 C232.671659,2.37664744 230.545012,0.25 227.921659,0.25 L5,0.25 C2.37664744,0.25 0.25,2.37664744 0.25,5 L0.25,46.7430142 C0.25,49.3663668 2.37664744,51.4930142 5,51.4930142 L203.267564,51.4930142 C219.532237,51.4930142 229.355209,56.0681971 232.671659,65.2383025 Z" id="Combined-Shape" stroke="#D6DFE5" stroke-width="0.5" fill="#FFFFFF"></path>
                            <g id="Group-63" transform="translate(141.329146, 33.963731)">
                                <g id="Group-3">
                                    <mask id="mask-2" fill="white">
                                        <use xlink:href="#path-1"></use>
                                    </mask>
                                    <g id="Clip-2"></g>
                                </g>
                            </g>
                            <path d="M-1.70530257e-13,30.4196891 L232.921659,30.4196891" id="Path-6" stroke="#D6DFE5" stroke-width="0.5"></path>
                            <path d="" id="Path-7" stroke="#979797"></path>
                            <rect id="Rectangle-Copy" fill="#DCDEE1" x="12.9400922" y="11" width="88.4239631" height="4" rx="2"></rect>
                            <g id="Group-79" transform="translate(175.769585, 36.000000)" fill="#DCDEE1">
                                <rect id="Rectangle" x="0" y="0" width="9" height="9" rx="4.5"></rect>
                                <rect id="Rectangle-Copy" x="12.9400922" y="3" width="32.3502304" height="3" rx="1.5"></rect>
                            </g>
                        </g>
                    </g>
                </g>
            </g>
        </g>
    </g>
</svg>