<?xml version="1.0" encoding="UTF-8"?>
<svg width="93px" height="92px" viewBox="0 0 93 92" version="1.1" xmlns="http://www.w3.org/2000/svg" xmlns:xlink="http://www.w3.org/1999/xlink">
    <!-- Generator: Sketch 52.1 (67048) - http://www.bohemiancoding.com/sketch -->
    <title>Group 31</title>
    <desc>Created with Sketch.</desc>
    <g id="Page-1" stroke="none" stroke-width="1" fill="none" fill-rule="evenodd">
        <g id="02-Power-Blocks-Email-Subscription-Mockup-Design" transform="translate(-1045.000000, -347.000000)">
            <g id="Group-32" transform="translate(1045.000000, 265.000000)">
                <g id="Group-31" transform="translate(0.000000, 82.000000)">
                    <rect id="Rectangle-Copy-25" stroke="#DDDDDD" stroke-width="0.5" fill="#FFFFFF" x="0.25" y="0.25" width="92.5" height="91.5" rx="5"></rect>
                    <g id="Group-29" transform="translate(20.000000, 17.000000)" fill="#D8D8D8">
                        <rect id="Rectangle-Copy-16" transform="translate(26.500000, 7.000000) scale(1, -1) translate(-26.500000, -7.000000) " x="19" y="0" width="15" height="14" rx="3"></rect>
                        <g id="Group-27" transform="translate(2.000000, 54.000000)">
                            <rect id="Rectangle-Copy-20" transform="translate(17.000000, 2.000000) scale(1, -1) translate(-17.000000, -2.000000) " x="0" y="1" width="34" height="2" rx="1"></rect>
                            <rect id="Rectangle-Copy-21" transform="translate(44.000000, 2.000000) scale(1, -1) translate(-44.000000, -2.000000) " x="39" y="0" width="10" height="4" rx="2"></rect>
                        </g>
                        <rect id="Rectangle-Copy-18" transform="translate(27.000000, 23.500000) scale(1, -1) translate(-27.000000, -23.500000) " x="10" y="21" width="34" height="5" rx="2.5"></rect>
                        <g id="Group-28" transform="translate(0.000000, 34.000000)">
                            <rect id="Rectangle-Copy-26" transform="translate(27.000000, 1.000000) scale(1, -1) translate(-27.000000, -1.000000) " x="0" y="0" width="54" height="2" rx="1"></rect>
                            <rect id="Rectangle-Copy-27" transform="translate(20.863636, 6.000000) scale(1, -1) translate(-20.863636, -6.000000) " x="0" y="5" width="41.7272727" height="2" rx="1"></rect>
                        </g>
                    </g>
                </g>
            </g>
        </g>
    </g>
</svg>