<?xml version="1.0" encoding="UTF-8"?>
<svg width="93px" height="62px" viewBox="0 0 93 62" version="1.1" xmlns="http://www.w3.org/2000/svg" xmlns:xlink="http://www.w3.org/1999/xlink">
    <!-- Generator: Sketch 52.1 (67048) - http://www.bohemiancoding.com/sketch -->
    <title>Group 9</title>
    <desc>Created with Sketch.</desc>
    <g id="Page-1" stroke="none" stroke-width="1" fill="none" fill-rule="evenodd">
        <g id="02-Power-Blocks-Email-Subscription-Mockup-Design" transform="translate(-1045.000000, -265.000000)">
            <g id="Group-32" transform="translate(1045.000000, 265.000000)">
                <g id="Group-9">
                    <rect id="Rectangle" stroke="#DDDDDD" stroke-width="0.5" fill="#FFFFFF" x="0.25" y="0.25" width="92.5" height="61.5" rx="5"></rect>
                    <g id="Group-23" transform="translate(18.000000, 9.000000)">
                        <rect id="Rectangle-Copy-16" fill="#D8D8D8" transform="translate(29.500000, 6.500000) scale(1, -1) translate(-29.500000, -6.500000) " x="22" y="0" width="15" height="13" rx="3"></rect>
                        <g id="Group-22" transform="translate(5.000000, 35.000000)">
                            <rect id="Rectangle-Copy-19" stroke="#DDDDDD" stroke-width="0.5" transform="translate(24.000000, 4.500000) scale(1, -1) translate(-24.000000, -4.500000) " x="0.25" y="0.25" width="47.5" height="8.5" rx="1"></rect>
                            <rect id="Rectangle-Copy-20" fill="#D8D8D8" transform="translate(9.411765, 4.500000) scale(1, -1) translate(-9.411765, -4.500000) " x="2.82352941" y="3" width="13.1764706" height="3" rx="1.5"></rect>
                            <rect id="Rectangle-Copy-21" fill="#D8D8D8" transform="translate(41.882353, 4.500000) scale(1, -1) translate(-41.882353, -4.500000) " x="39.5294118" y="3" width="4.70588235" height="3" rx="1.5"></rect>
                        </g>
                        <rect id="Rectangle-Copy-17" fill="#D8D8D8" transform="translate(29.000000, 20.500000) scale(1, -1) translate(-29.000000, -20.500000) " x="0" y="19" width="58" height="3" rx="1.5"></rect>
                        <rect id="Rectangle-Copy-18" fill="#D8D8D8" transform="translate(29.500000, 25.500000) scale(1, -1) translate(-29.500000, -25.500000) " x="4" y="24" width="51" height="3" rx="1.5"></rect>
                    </g>
                </g>
            </g>
        </g>
    </g>
</svg>