<?xml version="1.0" encoding="UTF-8"?>
<svg width="93px" height="62px" viewBox="0 0 93 62" version="1.1" xmlns="http://www.w3.org/2000/svg" xmlns:xlink="http://www.w3.org/1999/xlink">
    <!-- Generator: Sketch 52.1 (67048) - http://www.bohemiancoding.com/sketch -->
    <title>Group 30</title>
    <desc>Created with Sketch.</desc>
    <g id="Page-1" stroke="none" stroke-width="1" fill="none" fill-rule="evenodd">
        <g id="02-Power-Blocks-Email-Subscription-Mockup-Design" transform="translate(-1158.000000, -265.000000)">
            <g id="Group-32" transform="translate(1045.000000, 265.000000)">
                <g id="Group-30" transform="translate(113.000000, 0.000000)">
                    <rect id="Rectangle-Copy-22" stroke="#DDDDDD" stroke-width="0.5" fill="#FFFFFF" x="0.25" y="0.25" width="92.5" height="61.5" rx="5"></rect>
                    <g id="Group-26" transform="translate(15.000000, 11.000000)">
                        <rect id="Rectangle-Copy-16" fill="#D8D8D8" transform="translate(32.000000, 4.000000) scale(1, -1) translate(-32.000000, -4.000000) " x="19" y="0" width="26" height="8" rx="4"></rect>
                        <g id="Group-24" transform="translate(19.000000, 34.000000)">
                            <rect id="Rectangle-Copy-23" stroke="#DDDDDD" stroke-width="0.5" transform="translate(13.000000, 4.000000) scale(1, -1) translate(-13.000000, -4.000000) " x="0.25" y="0.25" width="25.5" height="7.5" rx="3.75"></rect>
                            <rect id="Rectangle-Copy-24" fill="#D8D8D8" transform="translate(12.500000, 4.000000) scale(1, -1) translate(-12.500000, -4.000000) " x="8" y="3" width="9" height="2" rx="1"></rect>
                        </g>
                        <g id="Group-25" transform="translate(0.000000, 20.000000)">
                            <rect id="Rectangle-Copy-17" fill="#D8D8D8" transform="translate(8.000000, 1.000000) scale(1, -1) translate(-8.000000, -1.000000) " x="0" y="0" width="16" height="2" rx="1"></rect>
                            <path d="M0,4.91398443 L62.46205,4.91398443" id="Path-3" stroke="#DDDDDD" stroke-width="0.5" stroke-linecap="round"></path>
                        </g>
                    </g>
                </g>
            </g>
        </g>
    </g>
</svg>